<svg width="110" height="40" viewBox="0 0 110 40" fill="none" xmlns="http://www.w3.org/2000/svg">
<circle cx="90" cy="20" r="20" fill="#EDEDED"/>
<circle cx="20" cy="20" r="20" fill="#EDEDED"/>
<path d="M96 16C96 14.4087 95.3679 12.8826 94.2426 11.7574C93.1174 10.6321 91.5913 10 90 10C88.4087 10 86.8826 10.6321 85.7574 11.7574C84.6321 12.8826 84 14.4087 84 16C84 23 81 25 81 25H99C99 25 96 23 96 16Z" stroke="black" stroke-width="2" stroke-linecap="round" stroke-linejoin="round"/>
<path d="M91.7295 29C91.5537 29.3031 91.3014 29.5547 90.9978 29.7295C90.6941 29.9044 90.3499 29.9965 89.9995 29.9965C89.6492 29.9965 89.3049 29.9044 89.0013 29.7295C88.6977 29.5547 88.4453 29.3031 88.2695 29" stroke="black" stroke-width="2" stroke-linecap="round" stroke-linejoin="round"/>
<path d="M20.0008 9C18.6876 9 17.3873 9.25866 16.174 9.7612C14.9608 10.2638 13.8584 11.0003 12.9298 11.9289C11.0544 13.8043 10.0008 16.3478 10.0008 19C9.9921 21.3091 10.7916 23.5485 12.2608 25.33L10.2608 27.33C10.1221 27.4706 10.0281 27.6492 9.99071 27.8432C9.95334 28.0372 9.97426 28.2379 10.0508 28.42C10.1339 28.5999 10.2685 28.7511 10.4377 28.8544C10.6068 28.9577 10.8028 29.0083 11.0008 29H20.0008C22.653 29 25.1965 27.9464 27.0719 26.0711C28.9473 24.1957 30.0008 21.6522 30.0008 19C30.0008 16.3478 28.9473 13.8043 27.0719 11.9289C25.1965 10.0536 22.653 9 20.0008 9ZM20.0008 27H13.4108L14.3408 26.07C14.5271 25.8826 14.6316 25.6292 14.6316 25.365C14.6316 25.1008 14.5271 24.8474 14.3408 24.66C13.0314 23.352 12.216 21.6305 12.0335 19.7888C11.8511 17.947 12.3128 16.099 13.3401 14.5595C14.3674 13.02 15.8966 11.8844 17.6674 11.346C19.4381 10.8076 21.3407 10.8998 23.0511 11.6069C24.7614 12.314 26.1737 13.5923 27.0473 15.2239C27.9209 16.8555 28.2017 18.7395 27.842 20.555C27.4822 22.3705 26.5042 24.005 25.0744 25.1802C23.6446 26.3554 21.8516 26.9985 20.0008 27Z" fill="black"/>
<circle cx="103" cy="5" r="4" fill="#16D329"/>
<circle cx="33" cy="5" r="4" fill="#16D329"/>
</svg>
