<svg width="35" height="35" viewBox="0 0 35 35" fill="none" xmlns="http://www.w3.org/2000/svg">
<path d="M21.2625 16.4792C21.9253 15.6508 22.29 14.6235 22.2979 13.5626C22.2979 12.2901 21.7924 11.0697 20.8926 10.1699C19.9929 9.27016 18.7725 8.76467 17.5 8.76467C16.2275 8.76467 15.0071 9.27016 14.1074 10.1699C13.2076 11.0697 12.7021 12.2901 12.7021 13.5626C12.71 14.6235 13.0747 15.6508 13.7375 16.4792C12.4376 17.2703 11.4177 18.4482 10.8208 19.848C10.7373 20.0256 10.6905 20.2182 10.6831 20.4144C10.6758 20.6105 10.7082 20.8061 10.7782 20.9894C10.8483 21.1727 10.9547 21.34 11.0909 21.4813C11.2272 21.6225 11.3906 21.7348 11.5713 21.8114C11.752 21.888 11.9463 21.9274 12.1425 21.9271C12.3388 21.9268 12.533 21.8869 12.7135 21.8098C12.894 21.7327 13.057 21.6199 13.1929 21.4783C13.3287 21.3366 13.4346 21.169 13.5042 20.9855C13.8393 20.202 14.396 19.5335 15.1059 19.0619C15.8157 18.5904 16.6478 18.3365 17.5 18.3313C18.3547 18.3337 19.1899 18.5863 19.9026 19.058C20.6153 19.5296 21.1743 20.1997 21.5104 20.9855C21.6221 21.2491 21.8088 21.474 22.0474 21.6322C22.286 21.7904 22.5658 21.8748 22.8521 21.8751C23.0472 21.8714 23.24 21.8319 23.4208 21.7584C23.7765 21.6073 24.0576 21.3213 24.2025 20.9631C24.3474 20.6049 24.3443 20.2039 24.1938 19.848C23.593 18.4462 22.5678 17.268 21.2625 16.4792ZM17.5 15.4147C17.1273 15.4147 16.763 15.3039 16.4533 15.0966C16.1437 14.8892 15.9025 14.5945 15.7606 14.2499C15.6187 13.9053 15.5823 13.5263 15.656 13.161C15.7298 12.7957 15.9104 12.4605 16.175 12.198C16.4396 11.9355 16.7761 11.7575 17.142 11.6866C17.5079 11.6156 17.8866 11.655 18.2301 11.7996C18.5736 11.9442 18.8664 12.1876 19.0713 12.4989C19.2763 12.8102 19.3841 13.1753 19.3813 13.548C19.3774 14.0444 19.1775 14.5192 18.8251 14.8688C18.4727 15.2185 17.9964 15.4147 17.5 15.4147ZM26.25 2.91675H8.75C7.58968 2.91675 6.47688 3.37768 5.65641 4.19816C4.83594 5.01863 4.375 6.13143 4.375 7.29175V23.3334C4.375 24.4937 4.83594 25.6065 5.65641 26.427C6.47688 27.2475 7.58968 27.7084 8.75 27.7084H12.5271L16.4646 31.6605C16.6009 31.7957 16.7625 31.9026 16.9401 31.9752C17.1178 32.0477 17.3081 32.0845 17.5 32.0834C17.8476 32.0834 18.1838 31.9593 18.4479 31.7334L23.1438 27.7084H26.25C27.4103 27.7084 28.5231 27.2475 29.3436 26.427C30.1641 25.6065 30.625 24.4937 30.625 23.3334V7.29175C30.625 6.13143 30.1641 5.01863 29.3436 4.19816C28.5231 3.37768 27.4103 2.91675 26.25 2.91675ZM27.7083 23.3334C27.7083 23.7202 27.5547 24.0911 27.2812 24.3646C27.0077 24.6381 26.6368 24.7917 26.25 24.7917H22.6042C22.2566 24.7917 21.9204 24.9158 21.6563 25.1417L17.5729 28.6417L14.1604 25.2147C14.0241 25.0795 13.8625 24.9726 13.6849 24.9C13.5072 24.8274 13.3169 24.7906 13.125 24.7917H8.75C8.36323 24.7917 7.99229 24.6381 7.7188 24.3646C7.44531 24.0911 7.29167 23.7202 7.29167 23.3334V7.29175C7.29167 6.90497 7.44531 6.53404 7.7188 6.26055C7.99229 5.98706 8.36323 5.83341 8.75 5.83341H26.25C26.6368 5.83341 27.0077 5.98706 27.2812 6.26055C27.5547 6.53404 27.7083 6.90497 27.7083 7.29175V23.3334Z" fill="white"/>
</svg>
