<svg width="139" height="137" viewBox="0 0 139 137" fill="none" xmlns="http://www.w3.org/2000/svg">
<g filter="url(#filter0_d_45_4842)">
<ellipse cx="64.3404" cy="67.7339" rx="53.3404" ry="52.7339" fill="#D49000"/>
<path d="M75.7698 120L52.2432 82.5965L54.1253 60.2456L59.7717 47.0175L77.6519 42L120 76.6667L106.354 105.404L75.7698 120Z" fill="#C68600"/>
<path d="M69.9411 85.916C71.1716 85.916 72.3678 85.8249 73.53 85.6426C74.6921 85.4603 75.7972 85.1868 76.8454 84.8223L77.8366 91.6582C76.515 91.9772 75.1364 92.2279 73.7009 92.4102C72.2653 92.5924 70.807 92.6836 69.3259 92.6836C66.5231 92.6836 63.9482 92.2734 61.6012 91.4531C59.277 90.6328 57.2604 89.4137 55.5514 87.7959C53.8425 86.1553 52.5094 84.1273 51.5524 81.7119C50.6182 79.2738 50.151 76.4368 50.151 73.2012V61.6143C50.151 58.2874 50.6182 55.3822 51.5524 52.8984C52.5094 50.3919 53.8538 48.2956 55.5856 46.6094C57.3402 44.9232 59.4024 43.6585 61.7721 42.8154C64.1647 41.9723 66.8079 41.5508 69.7018 41.5508C71.1146 41.5508 72.4818 41.6533 73.8034 41.8584C75.1478 42.0407 76.4922 42.2913 77.8366 42.6104L76.8454 49.4805C75.8428 49.1387 74.749 48.8652 73.5641 48.6602C72.402 48.4551 71.2285 48.3525 70.0436 48.3525C68.2891 48.3525 66.7054 48.6146 65.2927 49.1387C63.9027 49.6628 62.7178 50.4603 61.738 51.5312C60.7581 52.5794 60.0062 53.9352 59.4821 55.5986C58.9808 57.262 58.7302 59.2445 58.7302 61.5459V73.2012C58.7302 75.4798 58.9922 77.4281 59.5163 79.0459C60.0632 80.641 60.8265 81.9512 61.8063 82.9766C62.7861 83.9792 63.9596 84.7197 65.3268 85.1982C66.7168 85.6768 68.2549 85.916 69.9411 85.916ZM70.9665 60.042V64.7246H44.238V60.042H70.9665ZM70.9665 69.2021V73.8848H44.238V69.2021H70.9665Z" fill="#FFC843"/>
<ellipse cx="65.3024" cy="68.2222" rx="54.3024" ry="53.2222" stroke="#FFC843" stroke-width="10"/>
</g>
<defs>
<filter id="filter0_d_45_4842" x="0" y="0" width="138.605" height="136.444" filterUnits="userSpaceOnUse" color-interpolation-filters="sRGB">
<feFlood flood-opacity="0" result="BackgroundImageFix"/>
<feColorMatrix in="SourceAlpha" type="matrix" values="0 0 0 0 0 0 0 0 0 0 0 0 0 0 0 0 0 0 127 0" result="hardAlpha"/>
<feOffset dx="4"/>
<feGaussianBlur stdDeviation="5"/>
<feComposite in2="hardAlpha" operator="out"/>
<feColorMatrix type="matrix" values="0 0 0 0 0.520833 0 0 0 0 0.352483 0 0 0 0 0 0 0 0 0.5 0"/>
<feBlend mode="normal" in2="BackgroundImageFix" result="effect1_dropShadow_45_4842"/>
<feBlend mode="normal" in="SourceGraphic" in2="effect1_dropShadow_45_4842" result="shape"/>
</filter>
</defs>
</svg>
