<svg width="23" height="24" viewBox="0 0 23 24" fill="none" xmlns="http://www.w3.org/2000/svg">
<path d="M2.875 6H4.79167H20.125" stroke="currentColor" stroke-width="2" stroke-linecap="round" stroke-linejoin="round"/>
<path d="M7.66663 6V4C7.66663 3.46957 7.86856 2.96086 8.22801 2.58579C8.58745 2.21071 9.07496 2 9.58329 2H13.4166C13.925 2 14.4125 2.21071 14.7719 2.58579C15.1314 2.96086 15.3333 3.46957 15.3333 4V6M18.2083 6V20C18.2083 20.5304 18.0064 21.0391 17.6469 21.4142C17.2875 21.7893 16.8 22 16.2916 22H6.70829C6.19996 22 5.71245 21.7893 5.353 21.4142C4.99356 21.0391 4.79163 20.5304 4.79163 20V6H18.2083Z" stroke="currentColor" stroke-width="2" stroke-linecap="round" stroke-linejoin="round"/>
<path d="M13.4166 11V17" stroke="currentColor" stroke-width="2" stroke-linecap="round" stroke-linejoin="round"/>
<path d="M9.58337 11V17" stroke="currentColor" stroke-width="2" stroke-linecap="round" stroke-linejoin="round"/>
</svg>
