<svg width="60" height="60" viewBox="0 0 60 60" fill="none" xmlns="http://www.w3.org/2000/svg">
<g filter="url(#filter0_d_1_6199)">
<circle cx="31" cy="29" r="25" fill="white"/>
</g>
<path d="M35.2916 20.875C35.5433 20.6233 35.8421 20.4236 36.171 20.2874C36.4999 20.1512 36.8523 20.0811 37.2083 20.0811C37.5643 20.0811 37.9167 20.1512 38.2456 20.2874C38.5744 20.4236 38.8733 20.6233 39.125 20.875C39.3767 21.1267 39.5763 21.4255 39.7125 21.7543C39.8488 22.0832 39.9189 22.4357 39.9189 22.7916C39.9189 23.1476 39.8488 23.5001 39.7125 23.8289C39.5763 24.1578 39.3767 24.4566 39.125 24.7083L26.1875 37.6458L20.9166 39.0833L22.3541 33.8125L35.2916 20.875Z" stroke="black" stroke-width="2" stroke-linecap="round" stroke-linejoin="round"/>
<defs>
<filter id="filter0_d_1_6199" x="0" y="0" width="60" height="60" filterUnits="userSpaceOnUse" color-interpolation-filters="sRGB">
<feFlood flood-opacity="0" result="BackgroundImageFix"/>
<feColorMatrix in="SourceAlpha" type="matrix" values="0 0 0 0 0 0 0 0 0 0 0 0 0 0 0 0 0 0 127 0" result="hardAlpha"/>
<feOffset dx="-1" dy="1"/>
<feGaussianBlur stdDeviation="2.5"/>
<feComposite in2="hardAlpha" operator="out"/>
<feColorMatrix type="matrix" values="0 0 0 0 0 0 0 0 0 0 0 0 0 0 0 0 0 0 0.14 0"/>
<feBlend mode="normal" in2="BackgroundImageFix" result="effect1_dropShadow_1_6199"/>
<feBlend mode="normal" in="SourceGraphic" in2="effect1_dropShadow_1_6199" result="shape"/>
</filter>
</defs>
</svg>
