<svg width="65" height="65" viewBox="0 0 65 65" fill="none" xmlns="http://www.w3.org/2000/svg">
<g filter="url(#filter0_d_210_6516)">
<circle cx="33.5" cy="30.5" r="22.5" fill="#69A88D"/>
<path d="M39 21.0001C39.2626 20.7374 39.5744 20.5291 39.9176 20.3869C40.2608 20.2448 40.6286 20.1716 41 20.1716C41.3714 20.1716 41.7392 20.2448 42.0824 20.3869C42.4256 20.5291 42.7374 20.7374 43 21.0001C43.2626 21.2627 43.471 21.5745 43.6131 21.9177C43.7553 22.2608 43.8284 22.6286 43.8284 23.0001C43.8284 23.3715 43.7553 23.7393 43.6131 24.0825C43.471 24.4256 43.2626 24.7374 43 25.0001L29.5 38.5001L24 40.0001L25.5 34.5001L39 21.0001Z" stroke="white" stroke-width="2" stroke-linecap="round" stroke-linejoin="round"/>
</g>
<defs>
<filter id="filter0_d_210_6516" x="0" y="0" width="65" height="65" filterUnits="userSpaceOnUse" color-interpolation-filters="sRGB">
<feFlood flood-opacity="0" result="BackgroundImageFix"/>
<feColorMatrix in="SourceAlpha" type="matrix" values="0 0 0 0 0 0 0 0 0 0 0 0 0 0 0 0 0 0 127 0" result="hardAlpha"/>
<feOffset dx="-1" dy="2"/>
<feGaussianBlur stdDeviation="5"/>
<feComposite in2="hardAlpha" operator="out"/>
<feColorMatrix type="matrix" values="0 0 0 0 0 0 0 0 0 0 0 0 0 0 0 0 0 0 0.25 0"/>
<feBlend mode="normal" in2="BackgroundImageFix" result="effect1_dropShadow_210_6516"/>
<feBlend mode="normal" in="SourceGraphic" in2="effect1_dropShadow_210_6516" result="shape"/>
</filter>
</defs>
</svg>
