<svg width="125" height="49" viewBox="0 0 125 49" fill="none" xmlns="http://www.w3.org/2000/svg">
<path d="M9.76 34.88C10.1013 36.7573 10.8693 38.208 12.064 39.232C13.3013 40.2133 14.944 40.704 16.992 40.704C19.6373 40.704 21.5573 39.616 22.752 37.44C23.9467 35.2213 24.544 31.5093 24.544 26.304C23.5627 27.6693 22.176 28.736 20.384 29.504C18.6347 30.272 16.736 30.656 14.688 30.656C11.9573 30.656 9.48267 30.1013 7.264 28.992C5.088 27.84 3.36 26.1547 2.08 23.936C0.8 21.6747 0.16 18.944 0.16 15.744C0.16 11.008 1.568 7.25333 4.384 4.48C7.2 1.664 11.04 0.255997 15.904 0.255997C21.9627 0.255997 26.2293 2.19733 28.704 6.08C31.2213 9.96267 32.48 15.808 32.48 23.616C32.48 29.1627 31.9893 33.7067 31.008 37.248C30.0693 40.7893 28.4267 43.4773 26.08 45.312C23.776 47.1467 20.6187 48.064 16.608 48.064C13.4507 48.064 10.7627 47.4667 8.544 46.272C6.32533 45.0347 4.61867 43.4347 3.424 41.472C2.272 39.4667 1.61067 37.2693 1.44 34.88H9.76ZM16.544 23.36C18.7627 23.36 20.512 22.6773 21.792 21.312C23.072 19.9467 23.712 18.112 23.712 15.808C23.712 13.2907 23.0293 11.3493 21.664 9.984C20.3413 8.576 18.528 7.872 16.224 7.872C13.92 7.872 12.0853 8.59733 10.72 10.048C9.39733 11.456 8.736 13.3333 8.736 15.68C8.736 17.9413 9.376 19.7973 10.656 21.248C11.9787 22.656 13.9413 23.36 16.544 23.36ZM49.4145 34.88C49.7558 36.7573 50.5238 38.208 51.7185 39.232C52.9558 40.2133 54.5985 40.704 56.6465 40.704C59.2918 40.704 61.2118 39.616 62.4065 37.44C63.6012 35.2213 64.1985 31.5093 64.1985 26.304C63.2172 27.6693 61.8305 28.736 60.0385 29.504C58.2892 30.272 56.3905 30.656 54.3425 30.656C51.6118 30.656 49.1372 30.1013 46.9185 28.992C44.7425 27.84 43.0145 26.1547 41.7345 23.936C40.4545 21.6747 39.8145 18.944 39.8145 15.744C39.8145 11.008 41.2225 7.25333 44.0385 4.48C46.8545 1.664 50.6945 0.255997 55.5585 0.255997C61.6172 0.255997 65.8838 2.19733 68.3585 6.08C70.8758 9.96267 72.1345 15.808 72.1345 23.616C72.1345 29.1627 71.6438 33.7067 70.6625 37.248C69.7238 40.7893 68.0812 43.4773 65.7345 45.312C63.4305 47.1467 60.2732 48.064 56.2625 48.064C53.1052 48.064 50.4172 47.4667 48.1985 46.272C45.9798 45.0347 44.2732 43.4347 43.0785 41.472C41.9265 39.4667 41.2652 37.2693 41.0945 34.88H49.4145ZM56.1985 23.36C58.4172 23.36 60.1665 22.6773 61.4465 21.312C62.7265 19.9467 63.3665 18.112 63.3665 15.808C63.3665 13.2907 62.6838 11.3493 61.3185 9.984C59.9958 8.576 58.1825 7.872 55.8785 7.872C53.5745 7.872 51.7398 8.59733 50.3745 10.048C49.0518 11.456 48.3905 13.3333 48.3905 15.68C48.3905 17.9413 49.0305 19.7973 50.3105 21.248C51.6332 22.656 53.5958 23.36 56.1985 23.36ZM103.661 40.192C106.093 40.192 108.226 39.6587 110.061 38.592C111.896 37.5253 113.346 35.968 114.413 33.92H124.653C123.16 38.4853 120.536 42.048 116.781 44.608C113.069 47.1253 108.717 48.384 103.725 48.384C98.605 48.384 94.1037 47.0187 90.221 44.288C86.381 41.5147 83.7143 37.824 82.221 33.216H76.781V27.904H81.197C81.1117 26.88 81.069 26.112 81.069 25.6C81.069 25.0027 81.1117 24.192 81.197 23.168H76.781V17.856H82.285C83.7783 13.248 86.445 9.57866 90.285 6.848C94.1677 4.11733 98.6477 2.752 103.725 2.752C108.717 2.752 113.069 4.032 116.781 6.592C120.536 9.152 123.16 12.6933 124.653 17.216H114.413C113.346 15.168 111.896 13.632 110.061 12.608C108.226 11.5413 106.093 11.008 103.661 11.008C101.058 11.008 98.733 11.6053 96.685 12.8C94.6797 13.9947 93.1223 15.68 92.013 17.856H104.301V23.168H90.413C90.3277 24.192 90.285 25.0027 90.285 25.6C90.285 26.112 90.3277 26.88 90.413 27.904H104.301V33.216H91.949C93.0583 35.392 94.637 37.0987 96.685 38.336C98.733 39.5733 101.058 40.192 103.661 40.192Z" fill="#FF9900"/>
</svg>
