<svg width="26" height="26" viewBox="0 0 26 26" fill="none" xmlns="http://www.w3.org/2000/svg">
<path d="M13 6.75C12.6685 6.75 12.3505 6.8817 12.1161 7.11612C11.8817 7.35054 11.75 7.66848 11.75 8V13C11.75 13.3315 11.8817 13.6495 12.1161 13.8839C12.3505 14.1183 12.6685 14.25 13 14.25C13.3315 14.25 13.6495 14.1183 13.8839 13.8839C14.1183 13.6495 14.25 13.3315 14.25 13V8C14.25 7.66848 14.1183 7.35054 13.8839 7.11612C13.6495 6.8817 13.3315 6.75 13 6.75ZM14.15 17.525C14.1226 17.4453 14.0848 17.3697 14.0375 17.3L13.8875 17.1125C13.7117 16.9391 13.4885 16.8216 13.246 16.7748C13.0035 16.7281 12.7526 16.7543 12.525 16.85C12.3735 16.9133 12.234 17.0021 12.1125 17.1125C11.9967 17.2293 11.905 17.3678 11.8428 17.5201C11.7806 17.6724 11.7491 17.8355 11.75 18C11.752 18.1633 11.786 18.3247 11.85 18.475C11.9061 18.6301 11.9957 18.771 12.1124 18.8876C12.229 19.0043 12.3699 19.0939 12.525 19.15C12.6746 19.2161 12.8364 19.2503 13 19.2503C13.1636 19.2503 13.3254 19.2161 13.475 19.15C13.6301 19.0939 13.771 19.0043 13.8876 18.8876C14.0043 18.771 14.0939 18.6301 14.15 18.475C14.2141 18.3247 14.248 18.1633 14.25 18C14.2561 17.9168 14.2561 17.8332 14.25 17.75C14.2285 17.6703 14.1948 17.5944 14.15 17.525ZM13 0.5C10.5277 0.5 8.11099 1.23311 6.05538 2.60663C3.99976 3.98015 2.39761 5.93238 1.45151 8.21646C0.505416 10.5005 0.257874 13.0139 0.74019 15.4386C1.2225 17.8634 2.41301 20.0907 4.16117 21.8388C5.90933 23.587 8.13661 24.7775 10.5614 25.2598C12.9861 25.7421 15.4995 25.4946 17.7836 24.5485C20.0676 23.6024 22.0199 22.0002 23.3934 19.9446C24.7669 17.889 25.5 15.4723 25.5 13C25.5 11.3585 25.1767 9.73303 24.5485 8.21646C23.9203 6.69989 22.9996 5.3219 21.8388 4.16117C20.6781 3.00043 19.3001 2.07969 17.7836 1.45151C16.267 0.823322 14.6415 0.5 13 0.5ZM13 23C11.0222 23 9.08879 22.4135 7.4443 21.3147C5.79981 20.2159 4.51809 18.6541 3.76121 16.8268C3.00433 14.9996 2.8063 12.9889 3.19215 11.0491C3.57801 9.10929 4.53041 7.32746 5.92894 5.92893C7.32746 4.53041 9.10929 3.578 11.0491 3.19215C12.9889 2.8063 14.9996 3.00433 16.8268 3.7612C18.6541 4.51808 20.2159 5.79981 21.3147 7.4443C22.4135 9.08879 23 11.0222 23 13C23 15.6522 21.9464 18.1957 20.0711 20.0711C18.1957 21.9464 15.6522 23 13 23Z" fill="#1B1B1B" fill-opacity="0.57"/>
</svg>
