<svg width="85" height="85" viewBox="0 0 85 85" fill="none" xmlns="http://www.w3.org/2000/svg">
<g clip-path="url(#clip0_746_8304)">
<mask id="mask0_746_8304" style="mask-type:luminance" maskUnits="userSpaceOnUse" x="0" y="0" width="85" height="85">
<path d="M0 -1.90735e-06H85V85H0V-1.90735e-06Z" fill="white"/>
</mask>
<g mask="url(#mask0_746_8304)">
<path d="M76.7349 41.0114C76.7349 41.0114 79.267 37.3207 75.574 34.7908C71.8854 32.2609 69.3555 35.9517 69.3555 35.9517L57.6099 53.0814C57.2072 52.4059 56.7621 51.7393 56.27 51.0817L72.5721 27.3063C72.5721 27.3063 75.102 23.6178 71.4112 21.0879C67.7226 18.5558 65.1928 22.2466 65.1928 22.2466L49.857 44.6083C49.2866 44.1408 48.705 43.6755 48.1011 43.217L65.8772 17.292C65.8772 17.292 68.4071 13.6034 64.7186 11.0736C61.03 8.54145 58.5001 12.2322 58.5001 12.2322L40.7217 38.155C40.0686 37.7524 39.4221 37.4057 38.7757 37.0411L55.3887 12.8116C55.3887 12.8116 57.9186 9.12303 54.2278 6.59316C50.5392 4.06105 48.0094 7.75184 48.0094 7.75184L30.4412 33.3704L29.0342 35.4238L27.7704 37.2692C38.8383 44.8588 39.8918 59.1433 33.5683 68.3658C32.3022 70.2112 30.4591 68.9474 30.4591 68.9474C38.0487 57.8772 35.7291 45.4382 24.659 37.8486L27.9292 21.5151C27.9292 21.5151 29.1483 17.2092 24.8446 15.9901C20.5409 14.7711 19.3219 19.0747 19.3219 19.0747L15.5528 30.2679C14.0586 34.7058 12.4682 39.128 10.3633 43.3087C4.42001 55.1192 7.96987 69.7996 19.1787 77.4854C31.403 85.8668 48.1122 82.7532 56.4959 70.5288C56.9388 69.8801 57.3101 69.2471 57.6636 68.6141L57.762 68.6834L76.7349 41.0114Z" fill="#F4C3AB"/>
<path d="M6.80376 17.8945H2.33008C2.33481 13.7682 3.9761 9.81217 6.89388 6.89439C9.81166 3.97661 13.7677 2.33532 17.894 2.33058V6.80427C14.9538 6.80782 12.135 7.9774 10.0559 10.0565C7.97689 12.1355 6.80731 14.9543 6.80376 17.8945Z" fill="#B6ED96"/>
<path d="M11.1827 29.0781H6.70898C6.70898 16.7442 16.7435 6.7097 29.0774 6.7097V11.1834C19.2107 11.1834 11.1827 19.2114 11.1827 29.0781Z" fill="#B6ED96"/>
<path d="M67.1055 82.7617V78.288C73.816 78.288 78.2897 73.8144 78.2897 67.1038H82.7634C82.7634 76.0512 76.0528 82.7617 67.1055 82.7617Z" fill="#B6ED96"/>
<path d="M55.9199 78.3828V73.9091C64.8673 73.9091 73.9086 64.8678 73.9086 55.9204H78.3823C78.3823 69.3415 69.341 78.3828 55.9199 78.3828Z" fill="#B6ED96"/>
</g>
</g>
<defs>
<clipPath id="clip0_746_8304">
<rect width="85" height="85" fill="white"/>
</clipPath>
</defs>
</svg>
