<svg width="100" height="100" viewBox="0 0 100 100" fill="none" xmlns="http://www.w3.org/2000/svg">
<path d="M79.1666 8.33301H20.8333C17.518 8.33301 14.3386 9.64997 11.9944 11.9942C9.65021 14.3384 8.33325 17.5178 8.33325 20.833V79.1663C8.33325 82.4816 9.65021 85.661 11.9944 88.0052C14.3386 90.3494 17.518 91.6663 20.8333 91.6664H79.1666C79.8519 91.6568 80.5351 91.5871 81.2083 91.458L82.4583 91.1663H82.7499H82.9583L84.4999 90.583L85.0416 90.2914C85.4583 90.0414 85.9166 89.833 86.3333 89.5413C86.8896 89.132 87.4185 88.6866 87.9166 88.208L88.2083 87.833C88.6173 87.4185 88.9935 86.9727 89.3333 86.4997L89.7083 85.958C89.9993 85.4941 90.2502 85.0062 90.4583 84.4997C90.5726 84.2998 90.6701 84.0907 90.7499 83.8747C90.9583 83.3747 91.0833 82.833 91.2499 82.2913V81.6664C91.4862 80.8522 91.626 80.0131 91.6666 79.1663V20.833C91.6666 17.5178 90.3496 14.3384 88.0054 11.9942C85.6612 9.64997 82.4818 8.33301 79.1666 8.33301ZM20.8333 83.333C19.7282 83.333 18.6684 82.894 17.887 82.1126C17.1056 81.3312 16.6666 80.2714 16.6666 79.1663V61.208L30.3749 47.458C30.7623 47.0675 31.2231 46.7575 31.7309 46.546C32.2386 46.3344 32.7832 46.2255 33.3333 46.2255C33.8833 46.2255 34.4279 46.3344 34.9357 46.546C35.4434 46.7575 35.9042 47.0675 36.2916 47.458L72.1249 83.333H20.8333ZM83.3333 79.1663C83.3293 79.6801 83.2305 80.1886 83.0416 80.6664C82.9464 80.8694 82.8349 81.0645 82.7083 81.2497C82.5968 81.4261 82.4714 81.5933 82.3333 81.7497L60.0416 59.458L63.7083 55.7913C64.0956 55.4008 64.5564 55.0908 65.0642 54.8793C65.5719 54.6678 66.1165 54.5589 66.6666 54.5589C67.2166 54.5589 67.7612 54.6678 68.269 54.8793C68.7767 55.0908 69.2376 55.4008 69.6249 55.7913L83.3333 69.5413V79.1663ZM83.3333 57.7497L75.4999 49.9997C73.1154 47.7371 69.9537 46.4758 66.6666 46.4758C63.3795 46.4758 60.2178 47.7371 57.8333 49.9997L54.1666 53.6663L42.1666 41.6663C39.7821 39.4038 36.6203 38.1425 33.3333 38.1425C30.0462 38.1425 26.8844 39.4038 24.4999 41.6663L16.6666 49.4163V20.833C16.6666 19.7279 17.1056 18.6681 17.887 17.8867C18.6684 17.1053 19.7282 16.6663 20.8333 16.6663H79.1666C80.2717 16.6663 81.3315 17.1053 82.1129 17.8867C82.8943 18.6681 83.3333 19.7279 83.3333 20.833V57.7497Z" fill="#292929" fill-opacity="0.09"/>
</svg>
