<svg width="26" height="26" viewBox="0 0 26 26" fill="none" xmlns="http://www.w3.org/2000/svg">
<path d="M2.16895 13.0022C2.16956 15.5819 3.09029 18.0769 4.76565 20.0386C6.44102 22.0003 8.76115 23.3001 11.309 23.7044V16.133H8.56061V13.0022H11.3123V10.6188C11.2515 10.061 11.3143 9.49666 11.4963 8.96585C11.6782 8.43504 11.9747 7.95079 12.3649 7.54751C12.755 7.14423 13.2292 6.8318 13.7537 6.63241C14.2782 6.43302 14.8402 6.35157 15.3997 6.39383C16.2122 6.40683 17.0247 6.47942 17.8264 6.6105V9.27442H16.457C16.2243 9.24393 15.9877 9.26614 15.7647 9.3394C15.5417 9.41265 15.338 9.53508 15.1687 9.69764C14.9994 9.8602 14.8688 10.0587 14.7865 10.2786C14.7042 10.4984 14.6724 10.7339 14.6934 10.9677V13.0022H17.6953L17.2154 16.1341H14.6934V23.7044C16.7383 23.3812 18.6478 22.4789 20.1958 21.1042C21.7438 19.7295 22.8655 17.94 23.428 15.9476C23.9906 13.9551 23.9704 11.8433 23.37 9.86195C22.7695 7.88063 21.6139 6.11285 20.04 4.76791C18.4661 3.42296 16.5397 2.55718 14.489 2.27306C12.4383 1.98893 10.3491 2.29838 8.4688 3.16475C6.5885 4.03111 4.99581 5.41813 3.87932 7.16157C2.76282 8.90501 2.16927 10.9319 2.16895 13.0022Z" fill="currentColor"/>
</svg>
