<svg width="67" height="64" viewBox="0 0 67 64" fill="none" xmlns="http://www.w3.org/2000/svg">
<rect width="67" height="64" rx="32" fill="#1B1B1B"/>
<path d="M33.4943 21.054C27.1531 21.054 22.0354 25.9427 22.0354 32.0001C22.0354 38.0575 27.1531 42.9461 33.4943 42.9461C39.8356 42.9461 44.9533 38.0575 44.9533 32.0001C44.9533 25.9427 39.8356 21.054 33.4943 21.054ZM33.4943 39.1142C29.3935 39.1142 26.0468 35.9174 26.0468 32.0001C26.0468 28.0828 29.3935 24.8859 33.4943 24.8859C37.5952 24.8859 40.9418 28.0828 40.9418 32.0001C40.9418 35.9174 37.5952 39.1142 33.4943 39.1142ZM45.4226 18.0547C43.942 18.0547 42.7464 19.1968 42.7464 20.6111C42.7464 22.0253 43.942 23.1674 45.4226 23.1674C46.9031 23.1674 48.0988 22.0307 48.0988 20.6111C48.0992 20.2752 48.0303 19.9426 47.8959 19.6323C47.7616 19.3219 47.5645 19.0399 47.3159 18.8025C47.0673 18.565 46.7721 18.3767 46.4472 18.2484C46.1223 18.1201 45.7741 18.0542 45.4226 18.0547ZM55.8312 32.0001C55.8312 29.0541 55.8591 26.1348 55.6859 23.1941C55.5127 19.7785 54.697 16.7471 52.0823 14.2494C49.462 11.7464 46.2942 10.9725 42.7185 10.8071C39.6344 10.6417 36.5783 10.6683 33.4999 10.6683C30.4159 10.6683 27.3598 10.6417 24.2814 10.8071C20.7057 10.9725 17.5323 11.7517 14.9175 14.2494C12.2972 16.7524 11.4871 19.7785 11.3139 23.1941C11.1407 26.1401 11.1687 29.0594 11.1687 32.0001C11.1687 34.9407 11.1407 37.8654 11.3139 40.806C11.4871 44.2217 12.3028 47.2531 14.9175 49.7507C17.5378 52.2538 20.7057 53.0276 24.2814 53.1931C27.3654 53.3585 30.4215 53.3318 33.4999 53.3318C36.5839 53.3318 39.64 53.3585 42.7185 53.1931C46.2942 53.0276 49.4676 52.2484 52.0823 49.7507C54.7026 47.2477 55.5127 44.2217 55.6859 40.806C55.8647 37.8654 55.8312 34.9461 55.8312 32.0001ZM50.9146 44.5846C50.5068 45.5559 50.0151 46.2817 49.2273 47.0289C48.4396 47.7814 47.6853 48.2511 46.6685 48.6407C43.7297 49.7561 36.7515 49.5052 33.4943 49.5052C30.2371 49.5052 23.2533 49.7561 20.3146 48.646C19.2977 48.2564 18.5379 47.7868 17.7557 47.0342C16.968 46.2817 16.4763 45.5612 16.0685 44.5899C14.9064 41.7774 15.1689 35.1115 15.1689 32.0001C15.1689 28.8886 14.9064 22.2175 16.0685 19.4102C16.4763 18.4389 16.968 17.7131 17.7557 16.9659C18.5435 16.2188 19.2977 15.7438 20.3146 15.3542C23.2533 14.2441 30.2371 14.4949 33.4943 14.4949C36.7515 14.4949 43.7353 14.2441 46.6741 15.3542C47.6909 15.7438 48.4507 16.2134 49.2329 16.9659C50.0207 17.7184 50.5123 18.4389 50.9202 19.4102C52.0823 22.2175 51.8197 28.8886 51.8197 32.0001C51.8197 35.1115 52.0823 41.7774 50.9146 44.5846Z" fill="#E2E2E2"/>
</svg>
