<svg width="24" height="24" viewBox="0 0 24 24" fill="none" xmlns="http://www.w3.org/2000/svg">
<rect width="24" height="24" rx="12" fill="white"/>
<path d="M11.9978 7.89523C9.72636 7.89523 7.89315 9.72847 7.89315 12C7.89315 14.2715 9.72636 16.1048 11.9978 16.1048C14.2693 16.1048 16.1025 14.2715 16.1025 12C16.1025 9.72847 14.2693 7.89523 11.9978 7.89523ZM11.9978 14.6678C10.5289 14.6678 9.3301 13.469 9.3301 12C9.3301 10.531 10.5289 9.3322 11.9978 9.3322C13.4668 9.3322 14.6656 10.531 14.6656 12C14.6656 13.469 13.4668 14.6678 11.9978 14.6678ZM16.2707 6.77047C15.7403 6.77047 15.312 7.19876 15.312 7.72911C15.312 8.25947 15.7403 8.68776 16.2707 8.68776C16.801 8.68776 17.2293 8.26147 17.2293 7.72911C17.2294 7.60318 17.2048 7.47845 17.1566 7.36207C17.1085 7.24569 17.0379 7.13995 16.9489 7.0509C16.8598 6.96185 16.7541 6.89124 16.6377 6.84312C16.5213 6.795 16.3966 6.77031 16.2707 6.77047ZM19.9991 12C19.9991 10.8953 20.0091 9.80051 19.9471 8.69777C19.885 7.4169 19.5928 6.28014 18.6562 5.3435C17.7176 4.40487 16.5829 4.11467 15.302 4.05263C14.1973 3.99059 13.1026 4.0006 11.9999 4.0006C10.8951 4.0006 9.80041 3.99059 8.69768 4.05263C7.41684 4.11467 6.28009 4.40687 5.34348 5.3435C4.40486 6.28214 4.11467 7.4169 4.05263 8.69777C3.99059 9.80252 4.0006 10.8973 4.0006 12C4.0006 13.1027 3.99059 14.1995 4.05263 15.3022C4.11467 16.5831 4.40686 17.7199 5.34348 18.6565C6.28209 19.5951 7.41684 19.8853 8.69768 19.9474C9.80241 20.0094 10.8971 19.9994 11.9999 19.9994C13.1046 19.9994 14.1993 20.0094 15.302 19.9474C16.5829 19.8853 17.7196 19.5931 18.6562 18.6565C19.5948 17.7179 19.885 16.5831 19.9471 15.3022C20.0111 14.1995 19.9991 13.1047 19.9991 12ZM18.238 16.7192C18.0919 17.0834 17.9157 17.3556 17.6336 17.6358C17.3514 17.918 17.0812 18.0941 16.717 18.2402C15.6643 18.6585 13.1646 18.5644 11.9978 18.5644C10.8311 18.5644 8.32944 18.6585 7.27675 18.2422C6.91251 18.0961 6.64033 17.92 6.36015 17.6378C6.07796 17.3556 5.90184 17.0854 5.75575 16.7212C5.33948 15.6665 5.43354 13.1668 5.43354 12C5.43354 10.8332 5.33948 8.33152 5.75575 7.27881C5.90184 6.91456 6.07796 6.64238 6.36015 6.36219C6.64233 6.082 6.91251 5.90388 7.27675 5.75778C8.32944 5.3415 10.8311 5.43556 11.9978 5.43556C13.1646 5.43556 15.6663 5.3415 16.719 5.75778C17.0832 5.90388 17.3554 6.08 17.6356 6.36219C17.9177 6.64438 18.0939 6.91456 18.24 7.27881C18.6562 8.33152 18.5622 10.8332 18.5622 12C18.5622 13.1668 18.6562 15.6665 18.238 16.7192Z" fill="black"/>
</svg>
